# xmcd
#
# Track frame offsets:
#	150
#	14862
#	26517
#	41272
#	63425
#	81282
#	96232
#	118450
#	140827
#	155347
#	171207
#	188422
#
# Disc length: 2789 seconds
#
# Revision: 2
# Processed by: cddbd v1.4PL0 Copyright (c) Steve Scherf et al.
# Submitted via: audiograbber 1.80
#
DISCID=a30ae30c
DTITLE=Los Paraguayos - Musica Latino Americana [CD1)
DYEAR=1900
DGENRE=
TTITLE0=La Bamba
TTITLE1=A mi Tierra
TTITLE2=Cuando Sali de Cuba
TTITLE3=Pajaro Campana
TTITLE4=Ole o´Cangaceiro
TTITLE5=Maria Isabel
TTITLE6=El Condor Pasa
TTITLE7=Paraguay Medley
TTITLE8=Canto de Amistad
TTITLE9=Tristeza
TTITLE10=Mboraijhu - Asy
TTITLE11=Mexico
EXTD=
EXTT0=
EXTT1=
EXTT2=
EXTT3=
EXTT4=
EXTT5=
EXTT6=
EXTT7=
EXTT8=
EXTT9=
EXTT10=
EXTT11=
PLAYORDER=
